# xmcd
#
# Track frame offsets: 
#        151
#        16991
#        30154
#        45579
#        62806
#        80053
#        95044
#        106931
#        119336
#        129911
#        142524
#        158333
#        176739
#        194238
#        208374
#        221699
#        237541
#        254522
#        266830
#        281779
#
# Disc length: 3951 seconds
#
# Revision: 1
# Processed by: cddbd v1.5.2PL0 Copyright (c) Steve Scherf et al.
# Submitted via: ExactAudioCopyFreeDBPlugin 1.0
#
DISCID=2a0f6d14
DTITLE=克莉丝朵 盖尔 - 长发妹2002签字版
DYEAR=2005
DGENRE=Country
TTITLE0=当我在梦中 When I Dream
TTITLE1=梦中交谈 Talking In Your Sleep
TTITLE2=等待好时光的到来 Ready For The Times To Get Better
TTITLE3=没有人愿意孤独 Nobody Wants To Be Alone
TTITLE4=思念密西西比河和你 Miss The Mississippi And You
TTITLE5=为了好时光 For The Good Times
TTITLE6=总是 Always
TTITLE7=别让我的眼睛泛着忧伤 Don 't It Make My Brown Eyes Blue
TTITLE8=在雨中哭泣 Crying In The Rain
TTITLE9=疯狂 Crazy
TTITLE10=田纳西州的夜晚 Tennessee Nights
TTITLE11=半路 Half The Way
TTITLE12=哪里有我的爱 Ain't No Love In The Heart Of The City
TTITLE13=没有人是天使 Nobody's Angle
TTITLE14=我不能让你孤独 I Just Can't Leave Your Love Alone 
TTITLE15=情深似火 Deeper in the fire
TTITLE16=用另一种方式说我爱你 A New Way To Say I Love You 
TTITLE17=倚靠我 Lean On Me
TTITLE18=忧伤的一面 The Blue Side
TTITLE19=再见的声音 The sound of goodbye
EXTD=YEAR: 2005
EXTT0=
EXTT1=
EXTT2=
EXTT3=
EXTT4=
EXTT5=
EXTT6=
EXTT7=
EXTT8=
EXTT9=
EXTT10=
EXTT11=
EXTT12=
EXTT13=
EXTT14=
EXTT15=
EXTT16=
EXTT17=
EXTT18=
EXTT19=
PLAYORDER=
